<?xml version="1.0" encoding="UTF-8"?><svg xmlns="http://www.w3.org/2000/svg" xmlns:xlink="http://www.w3.org/1999/xlink" contentScriptType="text/ecmascript" width="150" zoomAndPan="magnify" contentStyleType="text/css" viewBox="0 0 150 93.749996" height="93.749996" preserveAspectRatio="xMidYMid meet" version="1.0"><defs><clipPath id="clip-0"><path d="M 2.703125 2.195312 L 65 2.195312 L 65 91.210938 L 2.703125 91.210938 Z M 2.703125 2.195312 " clip-rule="nonzero"/></clipPath><clipPath id="clip-1"><path d="M 85 2.195312 L 147 2.195312 L 147 91.210938 L 85 91.210938 Z M 85 2.195312 " clip-rule="nonzero"/></clipPath></defs><g clip-path="url(#clip-0)"><path fill="rgb(100%, 96.469116%, 96.078491%)" d="M 33.515625 29.757812 C 32.414062 29.757812 31.328125 29.816406 30.257812 29.929688 C 31.875 20.457031 37.546875 13.042969 44.640625 6.980469 C 46.574219 5.328125 45.066406 2.203125 42.570312 2.683594 C 12.234375 8.542969 4.949219 40.328125 3.160156 54.472656 C 2.84375 56.761719 2.792969 58.390625 2.792969 60.488281 C 2.792969 77.464844 16.546875 91.226562 33.515625 91.226562 C 50.480469 91.226562 64.234375 77.464844 64.234375 60.488281 C 64.234375 43.515625 50.480469 29.757812 33.515625 29.757812 " fill-opacity="1" fill-rule="nonzero"/></g><g clip-path="url(#clip-1)"><path fill="rgb(100%, 96.469116%, 96.078491%)" d="M 116.253906 29.757812 C 115.15625 29.757812 114.070312 29.816406 113 29.929688 C 114.617188 20.457031 120.289062 13.042969 127.378906 6.980469 C 129.3125 5.328125 127.808594 2.203125 125.3125 2.683594 C 94.976562 8.542969 87.6875 40.328125 85.902344 54.472656 C 85.585938 56.761719 85.535156 58.390625 85.535156 60.488281 C 85.535156 77.464844 99.289062 91.226562 116.253906 91.226562 C 133.222656 91.226562 146.972656 77.464844 146.972656 60.488281 C 146.972656 43.515625 133.222656 29.757812 116.253906 29.757812 " fill-opacity="1" fill-rule="nonzero"/></g></svg>